# xmcd CD database file
#
# Track frame offsets:
#	150
#	41948
#	82678
#	101810
#	140390
#	171048
#
# Disc length: 2617 seconds
#
# Revision: 0
# Processed by: cddbd v1.5.2PL0 Copyright (c) Steve Scherf et al.
# Submitted via: CDex 1.70beta2
#
DISCID=460a3706
DTITLE=Takase, Aki and  Joao, Maria - Looking for love - Live
DYEAR=1987
DGENRE=Jazz
TTITLE0=Confirmation 
TTITLE1=Don't ask about me
TTITLE2=Amanojaku
TTITLE3=Send in the clowns
TTITLE4=My favourite things
TTITLE5=S. Joao
EXTD=YEAR: 1987
EXTT0=
EXTT1=
EXTT2=
EXTT3=
EXTT4=
EXTT5=
PLAYORDER=
